<?xml version="1.0" encoding="UTF-8" standalone="no"?>
<!-- Created with Inkscape (http://www.inkscape.org/) -->

<svg
   version="1.1"
   id="svg1"
   width="256.54898"
   height="256.56058"
   viewBox="0 0 256.54898 256.56057"
   sodipodi:docname="icon_ink.svg"
   inkscape:version="1.3.2 (1:1.3.2+202311252150+091e20ef0f)"
   xmlns:inkscape="http://www.inkscape.org/namespaces/inkscape"
   xmlns:sodipodi="http://sodipodi.sourceforge.net/DTD/sodipodi-0.dtd"
   xmlns="http://www.w3.org/2000/svg"
   xmlns:svg="http://www.w3.org/2000/svg">
  <defs
     id="defs1" />
  <sodipodi:namedview
     id="namedview1"
     pagecolor="#505050"
     bordercolor="#eeeeee"
     borderopacity="1"
     inkscape:showpageshadow="0"
     inkscape:pageopacity="0"
     inkscape:pagecheckerboard="0"
     inkscape:deskcolor="#d1d1d1"
     inkscape:zoom="2.5986734"
     inkscape:cx="120.44607"
     inkscape:cy="117.36758"
     inkscape:window-width="1920"
     inkscape:window-height="1016"
     inkscape:window-x="0"
     inkscape:window-y="27"
     inkscape:window-maximized="1"
     inkscape:current-layer="layer2"
     inkscape:export-bgcolor="#00000000" />
  <g
     inkscape:groupmode="layer"
     id="layer2"
     inkscape:label="pathnobg"
     style="display:inline"
     transform="translate(-3.2390771,-2.6035321)">
    <path
       style="display:inline;fill:#000000"
       d="M 55.519999,258.98155 C 27.539311,255.40958 6.3090008,233.74726 3.5166502,205.92 3.2668875,203.43098 3.1932953,180.79625 3.26539,128.64 3.3793131,46.22332 3.1709459,53.60447 5.6252132,45.046206 11.267208,25.372035 27.755373,9.4201715 47.552222,4.4829351 54.9973,2.6261695 48.846091,2.7658889 128.8,2.637462 c 52.24821,-0.083924 74.42802,-0.01514 77.28,0.2396624 14.0561,1.255805 26.63732,7.1011477 36.48952,16.9533496 8.54219,8.542193 13.80724,18.596839 16.54326,31.592598 0.47698,2.265572 0.5365,9.434984 0.64238,77.376928 0.0819,52.54493 0.013,75.78676 -0.23108,77.92 -3.08146,26.93576 -23.51278,48.05627 -50.28515,51.98136 -3.01127,0.44149 -11.96007,0.49314 -78.08,0.45069 -41.073413,-0.0264 -75.110931,-0.1031 -75.638931,-0.1705 z"
       id="path2" />
    <path
       style="display:inline;opacity:1;fill:#ffffff;fill-opacity:1"
       d="M 125.28,227.18857 C 83.063898,224.70173 47.229945,194.54385 37.460942,153.28 c -1.926605,-8.1379 -2.376721,-12.35292 -2.392063,-22.4 -0.01497,-9.80575 0.312141,-13.36063 1.911433,-20.7723 6.940244,-32.163454 29.792159,-58.571264 60.619686,-70.052468 19.620362,-7.307281 41.954302,-7.94347 62.340982,-1.775801 32.0178,9.686486 57.25765,36.205838 65.30848,68.619229 2.24335,9.03193 3.11202,17.44518 2.80646,27.18134 -0.63243,20.15166 -7.17209,38.84212 -19.16668,54.77867 -13.26708,17.62725 -31.6935,29.97013 -52.96165,35.47622 -9.38872,2.43064 -20.4093,3.45679 -30.64759,2.85368 z"
       id="path25"
       inkscape:label="path25" />
    <path
       style="display:none;fill:#000000;fill-opacity:0"
       d="m 210.08,257.67728 c 6.99036,-1.35997 13.70045,-3.73028 18.76115,-6.6273 15.33105,-8.77633 25.45262,-22.68187 29.13524,-40.0275 0.7436,-3.50248 0.7436,-3.50248 0.84054,-78.38248 0.0709,-54.762736 -0.001,-75.68786 -0.26905,-77.886995 C 255.30374,28.098911 233.7297,6.8428464 206.88,3.8466358 202.78147,3.3892732 60.557688,3.403222 56.387386,3.8613955 49.199346,4.6511153 43.608894,6.3258369 36.639999,9.7770849 30.361774,12.886288 26.711788,15.530921 21.426848,20.799919 11.692715,30.504691 6.1883391,41.738369 4.4969131,55.351604 4.2699534,57.178262 4.1599999,81.845384 4.1599999,130.93521 c 0,62.81885 0.065984,73.37536 0.4782937,76.52064 1.4629649,11.16012 5.9495724,21.28524 13.3918164,30.22187 9.6033,11.53162 24.532639,19.26174 39.646091,20.52797 1.806089,0.15131 36.043797,0.2484 76.083799,0.21576 72.8,-0.0594 72.8,-0.0594 76.32,-0.74417 z"
       id="path24"
       sodipodi:insensitive="true" />
    <path
       style="display:none;fill:#000000"
       d="m 102.4,176.32 c 0,-4.48 0,-4.48 4.64,-4.48 4.64,0 4.64,0 4.64,4.48 0,4.48 0,4.48 -4.64,4.48 -4.64,0 -4.64,0 -4.64,-4.48 z"
       id="path29"
       sodipodi:insensitive="true" />
    <path
       style="display:inline;fill:#000000"
       d="m 142.4,209.11799 c 22.22879,-3.35618 41.62557,-15.4465 54.33069,-33.86519 7.33305,-10.63075 12.14975,-23.66868 13.52984,-36.62282 0.5621,-5.27612 0.23144,-15.79732 -0.65461,-20.8289 C 203.42199,82.68466 175.27066,56.072729 139.95813,51.96184 134.6627,51.345375 124.87108,51.511206 119.84,52.302559 111.65696,53.589693 103.89189,56.09303 96.319998,59.885038 72.193294,71.967707 56.298265,94.480098 52.745727,121.6 c -0.565942,4.32037 -0.474174,15.03096 0.16534,19.29766 2.64356,17.63726 9.81183,32.32141 21.802072,44.66141 12.874122,13.24966 29.721691,21.70626 47.206861,23.69537 1.672,0.19021 3.472,0.40664 4,0.48096 2.03682,0.28669 13.28228,-0.13461 16.48,-0.61741 z"
       id="path28" />
    <path
       style="display:none;fill:#000000"
       d="M 125.46919,210.55404 C 105.35753,208.88938 87.508799,200.45503 73.598541,186.04276 60.371116,172.33798 52.762147,154.9032 51.526745,135.46866 50.341875,116.82904 55.839537,98.201226 66.991439,83.069393 80.507733,64.729358 101.27501,53.026536 124.16,50.853648 c 4.80778,-0.45649 14.13654,-0.20359 18.68562,0.506563 14.7805,2.307373 27.8594,8.042375 39.17505,17.17798 3.41302,2.755477 9.74261,9.164547 12.26775,12.421807 9.54436,12.311551 14.99806,25.631032 16.77119,40.960002 0.63869,5.52159 0.48058,15.14008 -0.33665,20.48 -3.47771,22.72393 -15.95796,42.28771 -35.20296,55.18344 -7.05308,4.72613 -17.71344,9.27064 -26.27837,11.20245 -7.10312,1.60211 -16.9395,2.33372 -23.77244,1.76815 z"
       id="path27"
       sodipodi:insensitive="true" />
    <path
       style="display:none;fill:#000000"
       d="m 144.64,225.63315 c 21.62153,-3.16964 40.47932,-12.75665 55.53939,-28.23537 14.8428,-15.25542 24.03721,-34.59221 26.54088,-55.81824 0.57195,-4.84897 0.64773,-15.41113 0.14564,-20.29954 C 221.71817,71.160854 178.48539,33.244364 128.48,34.992496 c -21.81542,0.762642 -42.027718,8.518882 -58.720002,22.533132 -3.651607,3.06576 -9.895044,9.446891 -12.909659,13.19437 -7.307662,9.084183 -13.638116,21.042774 -16.970908,32.059022 -3.236932,10.69938 -4.47212,20.76736 -3.98971,32.51997 0.815868,19.87644 8.292021,39.64017 20.964457,55.42101 4.959849,6.17644 12.449751,13.24622 18.98582,17.92088 13.10567,9.37329 29.348312,15.65379 44.640002,17.26085 1.76,0.18496 3.704,0.39601 4.32,0.469 2.90157,0.34378 15.71229,-0.13248 19.84,-0.73758 z"
       id="path26" />
    <path
       style="display:inline;fill:#d1d3d4;fill-opacity:1"
       d="m 150.37026,68.84332 c 0.72035,-2.352173 1.30974,-4.454632 1.30974,-4.67213 0,-0.751685 -10.36527,-2.886348 -15.04,-3.097395 -1.76,-0.07946 -1.76,-0.07946 -1.73983,4.776877 0.0111,2.670984 0.0926,4.928749 0.18109,5.017257 0.0885,0.08851 1.80743,0.379202 3.81983,0.645987 2.0124,0.266786 5.02691,0.821854 6.69891,1.233485 1.672,0.41163 3.13461,0.663859 3.25026,0.560508 0.11564,-0.103351 0.79964,-2.112416 1.52,-4.464589 z"
       id="path64" />
    <path
       style="display:none;fill:#d1d3d4;fill-opacity:1"
       d="m 146.4,73.888816 c -2.85207,-0.781024 -9.1352,-1.888818 -10.7129,-1.888818 -1.2093,0 -1.2093,0 -1.5682,-2.413071 -0.40197,-2.702652 -0.45176,-5.247571 -0.15155,-7.746928 0.20179,-1.68 0.20179,-1.68 1.58083,-1.68 2.4831,0 8.85077,0.958139 13.01182,1.957879 3.6516,0.87734 4.08142,1.052813 4.09357,1.671194 0.007,0.380009 -0.67654,2.957388 -1.52,5.727507 -1.10924,3.642992 -1.66639,5.029535 -2.01357,5.011115 -0.264,-0.01401 -1.488,-0.301502 -2.72,-0.638878 z"
       id="path63"
       sodipodi:insensitive="true" />
    <path
       style="display:inline;fill:#d1d3d4;fill-opacity:1"
       d="m 117.87636,72.627869 c 1.56,-0.368029 4.34766,-0.867516 6.1948,-1.109972 1.84714,-0.242455 3.43739,-0.519789 3.5339,-0.616296 0.56035,-0.560347 0.95195,-7.744403 0.51171,-9.38747 -0.2185,-0.815486 -0.13679,-0.816895 -6.83677,0.117909 -2.69831,0.376478 -9.80693,1.915642 -10.16266,2.200428 -0.0455,0.03639 0.59399,2.249969 1.42099,4.919058 1.19446,3.85503 1.60625,4.821284 2.00265,4.699188 0.27446,-0.08454 1.77538,-0.454816 3.33538,-0.822845 z"
       id="path62" />
    <path
       style="display:none;fill:#d1d3d4;fill-opacity:1"
       d="M 113.01543,73.551166 C 110.87077,66.688917 110.08,64.009773 110.08,63.605948 c 0,-1.029405 11.72118,-3.424745 16.83346,-3.440087 1.95347,-0.0059 1.95347,-0.0059 2.1458,3.274138 0.10982,1.872832 0.0363,4.394368 -0.17143,5.877508 -0.36376,2.597509 -0.36376,2.597509 -3.58579,2.981011 -1.77213,0.210926 -4.80604,0.751226 -6.74204,1.200666 -5.53839,1.28573 -5.16009,1.282183 -5.54457,0.05198 z"
       id="path61"
       sodipodi:insensitive="true" />
    <path
       style="display:inline;fill:#f7941d;fill-opacity:1"
       d="m 170.21097,78.857677 c 2.87599,-3.81358 2.98358,-4.013957 2.4,-4.469461 -2.94249,-2.296704 -13.14271,-8.148218 -14.20378,-8.148218 -0.25574,0 -3.86628,8.57151 -3.84158,9.12 0.008,0.176 1.56103,1.082865 3.45135,2.015255 1.89031,0.93239 4.65781,2.540298 6.14999,3.57313 1.49217,1.032831 2.78505,1.883274 2.87305,1.889873 0.088,0.0066 1.51493,-1.784661 3.17097,-3.980579 z"
       id="path60" />
    <path
       style="display:none;fill:#f7941d;fill-opacity:1"
       d="m 163.33429,81.651488 c -1.77414,-1.185721 -4.68644,-2.870373 -6.47179,-3.743673 -2.67854,-1.310207 -3.24751,-1.714373 -3.25429,-2.311667 -0.005,-0.398117 0.87538,-2.882117 1.95532,-5.52 1.58104,-3.861883 2.08463,-4.79615 2.5852,-4.79615 2.12168,0 15.67125,8.10677 15.86987,9.495015 0.12701,0.887804 -6.13208,9.072526 -6.91977,9.048658 -0.29636,-0.009 -1.9904,-0.986463 -3.76454,-2.172183 z"
       id="path59"
       sodipodi:insensitive="true" />
    <path
       style="display:inline;fill:#d1d3d4;fill-opacity:1"
       d="m 99.066385,80.753952 c 2.600125,-1.741859 7.604665,-4.470973 9.132735,-4.980328 0.48053,-0.160176 -3.23957,-9.213626 -3.78592,-9.213626 -1.2009,0 -11.106878,5.573943 -13.500562,7.596557 -1.08736,0.918798 -1.08736,0.918798 1.89227,4.82112 1.638796,2.146278 3.003982,3.902323 3.033747,3.902323 0.02976,0 1.482243,-0.956721 3.22773,-2.126046 z"
       id="path58" />
    <path
       style="display:none;fill:#000000"
       d="m 91.870914,79.472106 c -2.640597,-3.462228 -3.262527,-4.471155 -3.007252,-4.878524 1.076407,-1.71774 15.012568,-9.675143 16.167998,-9.231762 0.47969,0.184073 4.41212,9.492658 4.40322,10.423012 -0.003,0.362335 -0.99698,0.994539 -3.0764,1.9576 -1.68921,0.782338 -4.64565,2.474338 -6.569876,3.759999 -1.92422,1.285662 -3.743838,2.336903 -4.043595,2.336091 -0.323099,-8.74e-4 -1.900511,-1.778744 -3.874095,-4.366416 z"
       id="path57"
       sodipodi:insensitive="true" />
    <path
       style="display:inline;fill:#f15a29;fill-opacity:1"
       d="m 185.3896,95.199998 c 2.22683,-1.408 4.04915,-2.651567 4.04959,-2.763481 0.004,-0.928125 -8.10169,-10.746505 -10.18049,-12.332088 -1.26691,-0.966315 -0.61737,-1.463018 -6.03198,4.612677 -1.7798,1.997108 -1.7798,1.997108 1.37674,5.30976 1.73609,1.821958 3.87654,4.336518 4.75654,5.587911 0.88,1.251393 1.68568,2.246001 1.79041,2.21024 0.10472,-0.03576 2.01236,-1.217019 4.23919,-2.625019 z"
       id="path56" />
    <path
       style="display:none;fill:#000000"
       d="m 178.54385,96.112423 c -1.10593,-1.522166 -3.36647,-4.180007 -5.02342,-5.906313 -1.68866,-1.759352 -2.96601,-3.353254 -2.90653,-3.626859 0.0583,-0.268466 1.67387,-2.218625 3.59004,-4.333687 2.49739,-2.756603 3.68918,-3.845566 4.2087,-3.845566 0.92456,0 5.69766,4.991441 9.02707,9.44 2.62828,3.511747 3.12723,4.38339 2.87918,5.029783 -0.19646,0.511969 -8.74933,6.010217 -9.34928,6.010217 -0.22824,0 -1.31984,-1.245409 -2.42576,-2.767575 z"
       id="path55"
       sodipodi:insensitive="true" />
    <path
       style="display:inline;fill:#d1d3d4;fill-opacity:1"
       d="m 83.97058,95.171143 c 1.03982,-1.493713 3.107427,-4.008491 4.594683,-5.588396 3.028833,-3.217514 3.228327,-2.433367 -2.106113,-8.27846 -1.876115,-2.055711 -1.876115,-2.055711 -4.511673,0.64 -2.665299,2.72613 -5.895071,6.657798 -7.563698,9.207442 -0.755913,1.155027 -0.83199,1.438607 -0.447303,1.667348 0.254937,0.151589 2.119522,1.350123 4.143522,2.663408 2.024,1.313285 3.752,2.391551 3.84,2.396145 0.088,0.0046 1.010762,-1.213774 2.050582,-2.707487 z"
       id="path54" />
    <path
       style="display:none;fill:#000000"
       d="m 77.119998,96.120938 c -2.376,-1.510827 -4.452894,-2.872198 -4.615319,-3.025269 -0.439414,-0.414105 0.08749,-1.356983 2.778796,-4.972594 3.177936,-4.269365 8.41341,-9.726992 9.315759,-9.711048 0.45582,0.0081 1.870307,1.32046 4.280764,3.971829 1.98,2.177891 3.6,4.134853 3.6,4.348806 0,0.213952 -1.004284,1.414629 -2.231742,2.66817 -2.433347,2.485054 -5.300355,5.978487 -6.662807,8.118594 -0.550431,0.864603 -1.098408,1.357433 -1.505451,1.353949 -0.352,-0.003 -2.584,-1.24161 -4.96,-2.752437 z"
       id="path53"
       sodipodi:insensitive="true" />
    <path
       style="display:inline;fill:#ef4136;fill-opacity:1"
       d="m 192.8,116.1073 c 0.704,-0.18777 1.45583,-0.36857 1.67073,-0.40177 0.21491,-0.0332 0.48099,-0.15061 0.59129,-0.26091 0.1103,-0.1103 0.4043,-0.12236 0.65334,-0.0268 0.24903,0.0956 0.66064,10e-4 0.91469,-0.2096 0.25405,-0.21084 0.60227,-0.2966 0.77382,-0.19058 0.17154,0.10602 0.4038,0.0441 0.51613,-0.13767 0.11232,-0.18174 0.33827,-0.24759 0.50211,-0.14634 0.48139,0.29752 0.35395,-0.50375 -0.64225,-4.03817 -0.98439,-3.49249 -2.6123,-7.75781 -4.0245,-10.54464 -0.64028,-1.263527 -0.95882,-1.59686 -1.3744,-1.438237 C 191.36089,99.101957 184,103.0756 184,103.23692 c 0,0.0887 0.56017,1.34063 1.24482,2.78215 1.167,2.45707 2.89388,7.42196 3.38101,9.7206 0.20839,0.98335 0.2638,1.01414 1.55513,0.86436 0.73647,-0.0854 1.91504,-0.30894 2.61904,-0.49671 z"
       id="path52" />
    <path
       style="display:none;fill:#000000"
       d="m 187.82842,116.08 c -0.67345,-2.86138 -2.3973,-7.64976 -3.63919,-10.10873 -0.65242,-1.2918 -1.1419,-2.6497 -1.08773,-3.01755 0.0742,-0.50363 1.28398,-1.28539 4.8985,-3.165315 2.64,-1.373078 4.96642,-2.499183 5.16983,-2.502456 0.71214,-0.01146 3.80622,7.324651 5.33102,12.639911 0.83091,2.89646 1.37537,5.59414 1.12903,5.59414 -0.0726,0 -2.41579,0.504 -5.20719,1.12 -2.7914,0.616 -5.32808,1.12 -5.63707,1.12 -0.41417,0 -0.66569,-0.44144 -0.9572,-1.68 z"
       id="path51"
       sodipodi:insensitive="true" />
    <path
       style="display:inline;fill:#d1d3d4;fill-opacity:1"
       d="m 74.048689,116.4 c 0.727234,-2.67847 3.02002,-9.22603 3.861008,-11.02597 1.077418,-2.30597 1.077418,-2.30597 -3.207235,-4.56 -2.356559,-1.239719 -4.412097,-2.254032 -4.567862,-2.254032 -0.685442,0 -5.180648,11.843942 -5.679699,14.964832 -0.197755,1.2367 -0.197755,1.2367 4.233671,2.21741 5.291772,1.17112 5.223024,1.16268 5.360117,0.65776 z"
       id="path50" />
    <path
       style="display:none;fill:#000000"
       d="m 70.719998,117.12477 c -1.32,-0.3132 -3.534409,-0.81632 -4.92091,-1.11805 -2.52091,-0.54858 -2.52091,-0.54858 -2.334866,-2.11942 0.249189,-2.10402 3.166527,-10.73537 4.639731,-13.7273 0.855165,-1.736757 1.370914,-2.42708 1.866272,-2.497984 0.910143,-0.130275 10.029773,4.649324 10.029773,5.256604 0,0.25446 -0.375689,1.20404 -0.834866,2.11018 -1.246143,2.45915 -2.834117,6.77459 -3.65443,9.9312 -0.839839,3.23175 -0.651873,3.14681 -4.790704,2.16477 z"
       id="path49"
       sodipodi:insensitive="true" />
    <path
       style="display:inline;fill:#ed1c24;fill-opacity:1"
       d="m 200.1339,138.03262 c 0.65119,-1.69698 0.55588,-15.31654 -0.11479,-16.40169 -0.22824,-0.3693 -3.82294,-0.0556 -8.81911,0.76949 -0.96,0.15855 -0.96,0.15855 -0.94791,7.59906 0.0121,7.44052 0.0121,7.44052 3.84,7.96206 5.15087,0.70179 5.79686,0.70939 6.04181,0.0711 z"
       id="path48" />
    <path
       style="display:none;fill:#000000"
       d="m 194.24,138.80137 c -2.728,-0.36177 -5.004,-0.69207 -5.05778,-0.73401 -0.0538,-0.0419 0.0632,-1.85704 0.25995,-4.03355 0.25925,-2.8679 0.2629,-5.04939 0.0133,-7.92438 -0.18945,-2.18189 -0.27082,-4.04072 -0.18081,-4.13073 0.35558,-0.35557 11.21609,-1.60556 11.50286,-1.32391 0.39354,0.38652 0.6234,13.60349 0.28634,16.46521 -0.31871,2.70595 0.10854,2.60068 -6.82382,1.68137 z"
       id="path47"
       sodipodi:insensitive="true" />
    <path
       style="display:inline;fill:#d1d3d4;fill-opacity:1"
       d="m 67.73174,138.0663 c 2.083542,-0.27153 4.076258,-0.55329 4.428258,-0.62613 0.617653,-0.12781 0.64,-0.38991 0.64,-7.50638 0,-4.05567 -0.072,-7.37495 -0.16,-7.37617 -0.088,-0.001 -2.307017,-0.29017 -4.931148,-0.64211 -2.624132,-0.35194 -4.828064,-0.58298 -4.897627,-0.51341 -0.286064,0.28606 -0.484246,10.52678 -0.265473,13.71789 0.207282,3.0235 0.306173,3.44 0.816783,3.44 0.319521,0 2.285664,-0.22216 4.369207,-0.49369 z"
       id="path46" />
    <path
       style="display:none;fill:#000000"
       d="m 61.975139,138 c -0.467356,-3.79251 -0.569799,-9.2354 -0.247925,-13.17241 0.193012,-2.36082 0.39726,-4.33873 0.453885,-4.39536 0.1339,-0.1339 11.38283,1.34293 11.547077,1.51598 0.0688,0.0725 -0.01589,1.57179 -0.188195,3.33179 -0.288271,2.94449 -0.132641,9.99671 0.264423,11.98203 0.167681,0.8384 0.167681,0.8384 -5.538362,1.55433 -3.138324,0.39377 -5.795492,0.71317 -5.904818,0.70979 C 62.251899,139.52276 62.07816,138.836 61.975139,138 Z"
       id="path45"
       sodipodi:insensitive="true" />
    <path
       style="display:none;fill:#000000"
       d="m 134.67724,143.38181 c 1.63502,-0.83413 4.08428,-3.54319 5.01397,-5.54583 1.0381,-2.23617 1.96794,-5.96603 1.68948,-7.83171 L 131.4815,63.679999 c -0.0162,-0.108281 -0.29696,0.756 -0.41663,1.679999 -0.11967,0.924 -2.29812,15.792 -4.84101,33.04 -2.54289,17.248002 -4.62353,31.876962 -4.62365,32.508812 -2.9e-4,1.55998 1.08547,5.69579 1.92976,7.35074 0.84747,1.66118 3.31217,4.34032 4.61995,5.02192 2.21557,1.15473 4.39487,1.18823 6.52732,0.10034 z"
       id="path42"
       sodipodi:insensitive="true" />
    <path
       style="display:inline;fill:#1b75bc;fill-opacity:1"
       d="m 127.74639,144.13315 c -3.93969,-1.96323 -6.77679,-7.42645 -6.79276,-13.08038 -0.004,-1.27604 2.17917,-17.13286 5.03442,-36.572772 4.14992,-28.25467 5.12659,-34.319987 5.52636,-34.319928 0.39985,5.9e-5 1.37762,6.088124 5.53764,34.479999 2.77862,18.963961 5.0445,35.343931 5.03527,36.399931 -0.0497,5.69153 -3.01275,11.36444 -6.87513,13.16301 -2.30168,1.0718 -5.22976,1.0444 -7.4658,-0.0699 z"
       id="path41" />
    <path
       style="display:none;fill:#000000"
       d="m 133.88324,134.05174 c 1.79457,-1.41161 2.26064,-3.52704 1.17084,-5.31436 -0.85357,-1.39988 -2.037,-2.10466 -3.53408,-2.10466 -2.99205,0 -5.03311,3.23065 -3.6864,5.83491 0.78471,1.51746 1.98751,2.25237 3.6864,2.25237 1.05048,0 1.77366,-0.2045 2.36324,-0.66826 z"
       id="path44"
       sodipodi:insensitive="true" />
    <path
       style="display:inline;fill:#d1d3d4;fill-opacity:1"
       d="m 130.11817,135.35897 c -2.90577,-0.90151 -4.32236,-4.62642 -2.67817,-7.04223 1.16792,-1.71604 2.32669,-2.39674 4.08,-2.39674 1.7533,0 2.91207,0.6807 4.08,2.39674 2.34314,3.4428 -1.43585,8.29748 -5.48183,7.04223 z"
       id="path43" />
    <path
       style="display:inline;fill:#be1e2d;fill-opacity:1"
       d="m 193.40855,160.87522 c 0.1239,0.1239 0.12119,-0.046 -0.006,-0.37747 -0.15988,-0.41663 -0.11682,-0.532 0.13942,-0.37363 0.24983,0.1544 0.302,0.0501 0.16,-0.32 -0.142,-0.37005 -0.0898,-0.4744 0.16,-0.32 0.24983,0.1544 0.302,0.0501 0.16,-0.32 -0.142,-0.37005 -0.0898,-0.4744 0.16,-0.32 0.24221,0.14969 0.30465,0.057 0.18014,-0.2675 -0.10508,-0.27385 -0.0232,-0.49662 0.18255,-0.49662 0.20522,0 0.28413,-0.144 0.17536,-0.32 -0.10878,-0.176 -0.0498,-0.32 0.13107,-0.32 0.18086,0 0.25308,-0.19744 0.16048,-0.43874 -0.0926,-0.24131 0.0315,-0.6386 0.27576,-0.88286 0.24426,-0.24426 0.39011,-0.60612 0.32411,-0.80412 -0.066,-0.198 0.078,-0.558 0.32,-0.8 0.242,-0.242 0.38043,-0.61871 0.30762,-0.83714 -0.0728,-0.21843 0.0191,-0.39714 0.20425,-0.39714 0.18514,0 0.25373,-0.216 0.15243,-0.48 -0.10131,-0.264 -0.0248,-0.48 0.17004,-0.48 0.19483,0 0.35512,-0.396 0.35621,-0.88 10e-4,-0.484 0.19771,-1.25513 0.43695,-1.71361 0.65304,-1.2515 1.27804,-4.14067 0.9592,-4.43411 -0.279,-0.25677 -9.43273,-2.34697 -9.55049,-2.1808 -0.0345,0.0487 -0.45791,1.50314 -0.94091,3.23212 -0.81834,2.92938 -2.48138,7.40894 -3.49907,9.42504 -0.45627,0.9039 -0.37154,1.81042 0.13968,1.49446 0.16096,-0.0995 0.29267,-0.0199 0.29267,0.1769 0,0.19677 0.144,0.26877 0.32,0.16 0.176,-0.10878 0.32,-0.0453 0.32,0.14111 0,0.18639 0.108,0.30465 0.24,0.2628 0.44928,-0.14243 2.31261,0.78915 2.13931,1.06956 -0.0949,0.15356 0.0745,0.18437 0.37656,0.0685 0.37005,-0.142 0.4744,-0.0898 0.32,0.16 -0.1544,0.24983 -0.05,0.302 0.32,0.16 0.37005,-0.142 0.4744,-0.0898 0.32,0.16 -0.1544,0.24983 -0.05,0.302 0.32,0.16 0.37005,-0.142 0.4744,-0.0898 0.32,0.16 -0.14711,0.23803 -0.0602,0.3059 0.24276,0.18964 0.25954,-0.0996 0.75902,0.10606 1.10996,0.457 0.35094,0.35094 0.72207,0.55407 0.82474,0.45141 0.10267,-0.10267 0.19125,0.0173 0.19684,0.26666 0.008,0.34224 0.11347,0.31732 0.43164,-0.10169 0.23181,-0.30526 0.52284,-0.45365 0.64674,-0.32975 z"
       id="path40" />
    <path
       style="display:none;fill:#000000"
       d="m 187.76645,160.07457 c -2.84968,-1.49606 -4.7161,-2.66439 -4.72,-2.95459 -0.004,-0.26401 0.71368,-2.09387 1.59384,-4.06635 0.88015,-1.97248 2.06269,-5.21247 2.62785,-7.19998 0.56516,-1.98751 1.06114,-3.66576 1.10216,-3.72944 0.041,-0.0637 2.61824,0.43229 5.72713,1.10216 5.65252,1.21794 5.65252,1.21794 5.47337,2.52499 -0.30904,2.25465 -2.37833,8.62899 -4.12918,12.71969 -1.29239,3.01954 -1.82976,3.94621 -2.32162,4.00352 -0.352,0.041 -2.7611,-1.03898 -5.35355,-2.4 z"
       id="path39"
       sodipodi:insensitive="true" />
    <path
       style="display:inline;fill:#d1d3d4;fill-opacity:1"
       d="m 73.366393,159.80143 c 1.624483,-0.81321 3.561875,-1.83271 4.305315,-2.26555 1.351709,-0.78698 1.351709,-0.78698 0.374172,-2.72347 -1.02902,-2.03848 -3.794724,-9.94874 -3.801763,-10.87353 -0.0023,-0.29761 -0.112119,-0.60729 -0.244119,-0.68817 -0.204851,-0.12553 -7.844683,1.4098 -9.41396,1.89186 -0.486323,0.14939 -0.462968,0.4231 0.261792,3.068 1.370196,5.00032 4.631996,13.06943 5.283094,13.06943 0.155025,0 1.610985,-0.66536 3.235469,-1.47857 z"
       id="path38" />
    <path
       style="display:none;fill:#000000"
       d="m 67.860987,159.28 c -2.408262,-5.14773 -5.215319,-14.08625 -4.599433,-14.646 0.250107,-0.22731 10.446798,-2.557 11.182831,-2.55499 0.200413,5.4e-4 0.464058,0.53228 0.585879,1.18164 0.395471,2.10804 2.342502,7.68498 3.71222,10.63302 0.735351,1.58269 1.264171,3.06742 1.175156,3.29939 -0.169646,0.44209 -9.47287,5.36694 -10.138348,5.36694 -0.211101,0 -1.074339,-1.476 -1.918305,-3.28 z"
       id="path37"
       sodipodi:insensitive="true" />
    <path
       style="display:inline;fill:#d1d3d4;fill-opacity:1"
       d="m 159.61015,176.24 c 0.0902,-3.76 0.0902,-3.76 -3.6,-3.76 -3.69015,0 -3.69015,0 -3.69015,3.85048 0,3.85048 0,3.85048 3.6,3.76 3.6,-0.0905 3.6,-0.0905 3.69015,-3.85048 z"
       id="path36" />
    <path
       style="display:none;fill:#000000"
       d="m 151.36,176.32 c 0,-4.48 0,-4.48 4.64,-4.48 4.64,0 4.64,0 4.64,4.48 0,4.48 0,4.48 -4.64,4.48 -4.64,0 -4.64,0 -4.64,-4.48 z"
       id="path35"
       sodipodi:insensitive="true" />
    <path
       style="display:inline;fill:#d1d3d4;fill-opacity:1"
       d="m 143.29015,176.24 c 0.0902,-3.76 0.0902,-3.76 -3.6,-3.76 -3.69015,0 -3.69015,0 -3.69015,3.85048 0,3.85048 0,3.85048 3.6,3.76 C 143.2,180 143.2,180 143.29015,176.24 Z"
       id="path34" />
    <path
       style="display:none;fill:#000000"
       d="m 135.04,176.32 c 0,-4.48 0,-4.48 4.64,-4.48 4.64,0 4.64,0 4.64,4.48 0,4.48 0,4.48 -4.64,4.48 -4.64,0 -4.64,0 -4.64,-4.48 z"
       id="path33"
       sodipodi:insensitive="true" />
    <path
       style="display:inline;fill:#d1d3d4;fill-opacity:1"
       d="m 127.04,176.32 c 0,-3.84 0,-3.84 -3.68,-3.84 -3.68,0 -3.68,0 -3.68,3.84 0,3.84 0,3.84 3.68,3.84 3.68,0 3.68,0 3.68,-3.84 z"
       id="path32" />
    <path
       style="display:none;fill:#000000"
       d="m 118.72,176.32 c 0,-4.48 0,-4.48 4.64,-4.48 4.64,0 4.64,0 4.64,4.48 0,4.48 0,4.48 -4.64,4.48 -4.64,0 -4.64,0 -4.64,-4.48 z"
       id="path31"
       sodipodi:insensitive="true" />
    <path
       style="display:inline;fill:#d1d3d4;fill-opacity:1"
       d="m 110.72,176.32 c 0,-3.84 0,-3.84 -3.68,-3.84 -3.68,0 -3.68,0 -3.68,3.84 0,3.84 0,3.84 3.68,3.84 3.68,0 3.68,0 3.68,-3.84 z"
       id="path30" />
  </g>
</svg>
